<?xml version="1.0" encoding="utf-8"?>
<!-- Generator: Adobe Illustrator 27.5.0, SVG Export Plug-In . SVG Version: 6.00 Build 0)  -->
<svg version="1.1" id="Layer_1" xmlns="http://www.w3.org/2000/svg" xmlns:xlink="http://www.w3.org/1999/xlink" x="0px" y="0px"
	 viewBox="0 0 369.9 197" style="enable-background:new 0 0 369.9 197;" xml:space="preserve">
<style type="text/css">
	.st0{fill:#0077F5;}
	.st1{enable-background:new    ;}
	.st2{fill:#231F20;}
</style>
<g>
	<path class="st0" d="M246,104.6h-64.1V97h60.6L224,57.2h-42.1v-7.6h38.6L200,5.6h-58v143.1h124.6L246,104.6z"/>
	<path class="st0" d="M365.5,5.6H211l19.9,44h45.7v99h43.6v-99h45.3V5.6z"/>
	<path class="st0" d="M132,5.6H7.2v44h60.1l-60.1,55v44H132v-44H71.8l60.1-55v-44H132z"/>
</g>
<g class="st1">
	<path class="st2" d="M15.9,166.1c-3.3,3.7-5,8-5,12.8c0,4.8,1.6,9.1,5,12.8h-3c-3.2-3.6-5-8.1-5-12.8c0-4.8,1.7-9.2,5-12.8H15.9z"
		/>
	<path class="st2" d="M29.7,166.1c5.2,0,7.9,2.4,7.9,7s-2.7,7-7.9,7h-6.4v8.2h-3.2v-22.2H29.7z M29.6,177.3c3.2,0,4.8-1.4,4.8-4.2
		s-1.6-4.2-4.8-4.2h-6.3v8.3H29.6z"/>
	<path class="st2" d="M50.8,173v2.8h-0.1c-0.7-0.5-1.5-0.7-2.4-0.7c-3,0-4.5,2.1-4.5,6.2v7.1h-2.8v-15.7h2.4l0.1,2.5h0.1
		c0.9-1.9,2.6-2.8,5-2.8C49.4,172.4,50.2,172.6,50.8,173z"/>
	<path class="st2" d="M54.9,181.5c0.4,2.9,2.7,4.7,6.3,4.7c2.3,0,4.3-0.7,5.8-2.1h0.1v2.9c-1.4,1.1-3.6,1.8-6,1.8
		c-5.5,0-9.1-3.2-9.1-8.2c0-4.8,3.4-8.2,8.2-8.2c4.8,0,7.9,3,7.9,7.5v1.6H54.9z M54.9,179.1h10.6c-0.4-2.5-2.4-4.2-5.3-4.2
		C57.5,174.9,55.4,176.6,54.9,179.1z"/>
	<path class="st2" d="M75.7,188.4l-6.6-15.7h3.1l5,12.7h0.1l5-12.7h2.9l-6.6,15.7H75.7z"/>
	<path class="st2" d="M91,167.8c0,1.1-0.8,1.9-1.9,1.9c-1.1,0-1.9-0.8-1.9-1.9c0-1.1,0.8-1.9,1.9-1.9C90.2,165.9,91,166.7,91,167.8z
		 M87.7,172.7h2.8v15.7h-2.8V172.7z"/>
	<path class="st2" d="M110.5,180.5c0,4.8-3.4,8.2-8.3,8.2s-8.3-3.4-8.3-8.2c0-4.8,3.5-8.2,8.3-8.2S110.5,175.7,110.5,180.5z
		 M96.8,180.5c0,3.3,2.2,5.6,5.4,5.6c3.2,0,5.4-2.3,5.4-5.6c0-3.3-2.2-5.6-5.4-5.6C99,174.9,96.8,177.2,96.8,180.5z"/>
	<path class="st2" d="M125.7,188.4l-0.1-2.5h-0.1c-1.1,1.8-3,2.8-5.6,2.8c-4,0-6.4-2.6-6.4-6.9v-9.1h2.8v8.8c0,2.9,1.6,4.7,4.3,4.7
		c2.9,0,4.7-2,4.7-5.3v-8.1h2.8v15.7H125.7z"/>
	<path class="st2" d="M142.9,173.6v3h-0.1c-1.1-1.1-2.7-1.7-4.9-1.7c-2,0-3.3,0.9-3.3,2.3c0,1.1,0.8,1.7,3.4,1.8
		c4.3,0.2,5.9,1.7,5.9,4.8c0,3-2.4,4.9-6.2,4.9c-2.6,0-4.7-0.6-6-1.6V184h0.1c1.3,1.4,3.2,2.2,5.7,2.2c2.1,0,3.5-0.9,3.5-2.3
		c0-1.3-0.9-1.9-3.7-2c-4.1-0.3-5.6-1.6-5.6-4.4c0-3,2.4-5,6.1-5C139.9,172.4,141.8,172.8,142.9,173.6z"/>
	<path class="st2" d="M147,164.9h2.8v23.4H147V164.9z"/>
	<path class="st2" d="M155.7,194.7l3.2-6.9l-6.6-15.1h3.1l5,12.1h0.1l5-12.1h2.9l-9.8,22H155.7z"/>
</g>
<g class="st1">
	<path class="st2" d="M201.4,177.2c0,6.7-4.8,11.5-11.7,11.5s-11.7-4.8-11.7-11.5c0-6.7,4.8-11.5,11.7-11.5S201.4,170.5,201.4,177.2
		z M183,177.2c0,4.2,2.7,7,6.7,7s6.7-2.9,6.7-7c0-4.2-2.7-7-6.7-7S183,173.1,183,177.2z"/>
	<path class="st2" d="M219.3,179v9.3h-4.4v-8.8c0-2.2-1.1-3.4-2.9-3.4c-2,0-3.2,1.4-3.2,3.8v8.4h-4.4v-15.7h3.7l0.2,2.2h0.1
		c0.9-1.6,2.6-2.6,4.9-2.6C217,172.3,219.3,174.8,219.3,179z"/>
	<path class="st2" d="M226.4,181.6c0.5,2.1,2.4,3.3,5.1,3.3c2.3,0,4.2-0.7,5.5-1.9h0.2v4.2c-1.3,0.9-3.4,1.5-5.9,1.5
		c-5.6,0-9.3-3.3-9.3-8.2c0-4.8,3.4-8.2,8.2-8.2c4.9,0,7.9,2.9,7.9,7.5v1.8H226.4z M226.4,179h7.8c-0.3-1.9-1.8-2.9-3.9-2.9
		C228.4,176.1,226.8,177.1,226.4,179z"/>
	<path class="st2" d="M258.9,167.5v5.4h-0.2c-1.4-1.8-3.7-2.7-6.4-2.7c-4.3,0-7.1,2.8-7.1,7c0,4.2,2.8,7,7.1,7c2.7,0,5-0.9,6.4-2.7
		h0.2v5.4c-1.8,1.2-3.8,1.7-6.8,1.7c-7.1,0-11.9-4.8-11.9-11.5c0-6.7,4.8-11.5,11.9-11.5C255.1,165.8,257.1,166.3,258.9,167.5z"/>
	<path class="st2" d="M278.4,180.5c0,4.8-3.5,8.2-8.4,8.2c-5,0-8.4-3.4-8.4-8.2c0-4.8,3.5-8.2,8.4-8.2
		C274.9,172.3,278.4,175.7,278.4,180.5z M265.9,180.5c0,2.5,1.6,4.3,4,4.3c2.3,0,4-1.8,4-4.3c0-2.5-1.6-4.3-4-4.3
		C267.6,176.2,265.9,177.9,265.9,180.5z"/>
	<path class="st2" d="M293.5,188.4l-0.1-2.1h-0.1c-1,1.5-2.8,2.4-5.1,2.4c-4.5,0-7.7-3.5-7.7-8.2s3.2-8.2,7.7-8.2
		c1.9,0,3.5,0.6,4.5,1.7h0.1v-9h4.4v23.4H293.5z M292.9,180.5c0-2.5-1.6-4.3-4-4.3c-2.4,0-4,1.8-4,4.3c0,2.5,1.6,4.3,4,4.3
		C291.2,184.8,292.9,183,292.9,180.5z"/>
	<path class="st2" d="M304.5,181.6c0.5,2.1,2.4,3.3,5.1,3.3c2.3,0,4.2-0.7,5.5-1.9h0.2v4.2c-1.3,0.9-3.4,1.5-5.9,1.5
		c-5.6,0-9.3-3.3-9.3-8.2c0-4.8,3.4-8.2,8.2-8.2c4.9,0,7.9,2.9,7.9,7.5v1.8H304.5z M304.5,179h7.8c-0.3-1.9-1.8-2.9-3.9-2.9
		C306.5,176.1,304.9,177.1,304.5,179z"/>
</g>
<g class="st1">
	<path class="st2" d="M318.9,191.8c3.3-3.7,5-8,5-12.8c0-4.8-1.6-9.1-5-12.8h3c3.2,3.6,5,8.1,5,12.8c0,4.8-1.7,9.2-5,12.8H318.9z"/>
</g>
</svg>
